<svg xmlns="http://www.w3.org/2000/svg" viewBox="0 0 283.5 92.6" enable-background="new 0 0 283.5 92.6"><path fill-rule="evenodd" clip-rule="evenodd" d="M0 38.1C0 59 15.1 76.3 37.1 76.3c21.9 0 37-17.3 37-38.1C74.2 16 59.3 0 37.1 0S0 16 0 38.1zm14.3 0c0-13.9 8.4-27.3 22.9-27.3 14.3 0 22.7 13.4 22.7 27.3 0 13-7 27.3-22.7 27.3-15.9 0-22.9-14.3-22.9-27.3zM94.1 92.6v-5.1H81c5.3-5.2 12.2-11.5 12.2-18.3 0-6.3-4-9.4-10.1-9.4-3.3 0-6.7.8-9.6 2.3l.5 5.4c2.1-1.4 4.7-2.6 7.4-2.6 2.6 0 5.3 1.4 5.3 4.3 0 5.9-11 15.1-14 18v5.4h21.4z"/><path d="M124.6 76.4c.1-1.6.2-4.1.2-6.2v-29h4.3v15.1h.1c1.5-2.7 4.3-4.4 8.2-4.4 5.9 0 10.2 5 10.1 12.2 0 8.6-5.4 12.8-10.7 12.8-3.5 0-6.2-1.3-8-4.5h-.1l-.2 4h-3.9zm4.5-9.6c0 .5.1 1.1.2 1.6.8 3 3.4 5.1 6.5 5.1 4.6 0 7.3-3.7 7.3-9.2 0-4.8-2.5-8.9-7.1-8.9-3 0-5.7 2-6.6 5.3-.1.5-.2 1.1-.2 1.8v4.3zM171 69.9c0 2.5 0 4.7.2 6.5h-3.9l-.2-3.9h-.1c-1.1 1.9-3.7 4.5-7.9 4.5-3.8 0-8.3-2.1-8.3-10.5v-14h4.4v13.3c0 4.6 1.4 7.6 5.3 7.6 2.9 0 5-2 5.7-4 .2-.6.4-1.4.4-2.2V52.5h4.4v17.4zM175.7 72c1.3.8 3.6 1.7 5.7 1.7 3.2 0 4.7-1.6 4.7-3.6 0-2.1-1.2-3.2-4.5-4.4-4.3-1.5-6.3-3.9-6.3-6.8 0-3.9 3.1-7 8.3-7 2.4 0 4.6.7 5.9 1.5l-1.1 3.2c-.9-.6-2.7-1.4-4.9-1.4-2.6 0-4 1.5-4 3.3 0 2 1.4 2.9 4.6 4.1 4.2 1.6 6.3 3.7 6.3 7.2 0 4.2-3.3 7.2-9 7.2-2.6 0-5.1-.6-6.7-1.6l1-3.4zM198.7 45.7c0 1.5-1 2.7-2.8 2.7-1.5 0-2.6-1.2-2.6-2.7 0-1.5 1.1-2.7 2.7-2.7 1.7 0 2.7 1.2 2.7 2.7zm-4.8 30.7v-24h4.4v24h-4.4zM203.5 59c0-2.5 0-4.5-.2-6.5h3.9l.2 4h.1c1.2-2.3 4-4.5 7.9-4.5 3.3 0 8.5 2 8.5 10.2v14.3h-4.4V62.6c0-3.9-1.4-7.1-5.5-7.1-2.9 0-5.1 2-5.8 4.5-.2.5-.3 1.3-.3 2v14.4h-4.4V59zM231.4 65.2c.1 5.9 3.9 8.3 8.2 8.3 3.1 0 5-.5 6.6-1.2l.7 3.1c-1.5.7-4.2 1.5-8 1.5-7.4 0-11.8-4.9-11.8-12.1 0-7.2 4.3-12.9 11.2-12.9 7.8 0 9.9 6.9 9.9 11.3 0 .9-.1 1.6-.1 2h-16.7zm12.8-3.1c.1-2.8-1.1-7.1-6-7.1-4.4 0-6.3 4.1-6.7 7.1h12.7zM251.2 72c1.3.8 3.6 1.7 5.7 1.7 3.2 0 4.7-1.6 4.7-3.6 0-2.1-1.2-3.2-4.5-4.4-4.3-1.5-6.3-3.9-6.3-6.8 0-3.9 3.1-7 8.3-7 2.4 0 4.6.7 5.9 1.5l-1.1 3.2c-.9-.6-2.7-1.4-4.9-1.4-2.6 0-4 1.5-4 3.3 0 2 1.4 2.9 4.6 4.1 4.2 1.6 6.3 3.7 6.3 7.2 0 4.2-3.3 7.2-9 7.2-2.6 0-5.1-.6-6.7-1.6l1-3.4zM268.8 72c1.3.8 3.6 1.7 5.7 1.7 3.2 0 4.7-1.6 4.7-3.6 0-2.1-1.2-3.2-4.5-4.4-4.3-1.5-6.3-3.9-6.3-6.8 0-3.9 3.1-7 8.3-7 2.4 0 4.6.7 5.9 1.5l-1.1 3.2c-.9-.6-2.7-1.4-4.9-1.4-2.6 0-4 1.5-4 3.3 0 2 1.4 2.9 4.6 4.1 4.2 1.6 6.3 3.7 6.3 7.2 0 4.2-3.3 7.2-9 7.2-2.6 0-5-.6-6.7-1.6l1-3.4z"/></svg>