<svg xmlns="http://www.w3.org/2000/svg" viewBox="2 143.6 396.1 112.8" enable-background="new 2 143.6 396.1 112.8"><path d="M42.1 256.1c-22-.3-40.1-1-40.1-1.7 0-2 154.5-3.4 278.1-2.4 64.4.5 117.3 1.2 117.7 1.6.4.4.3 1.1-.1 1.5-1 .9-294.3 1.8-355.6 1zm-5.3-25c0-.6 1.2-2.4 2.7-3.9 1.5-1.6 7.5-15.1 13.3-30.1 12.2-31 15.4-37.1 22.7-43.3l5.2-4.4-13.2.8c-15.1.9-24.1 3.6-29.6 8.9-4.2 4-6.8 11.2-5.7 15.7 1 3.9-1.8 3.6-6.1-.8-5.1-5.1-3.8-12.1 3.5-19 9.2-8.6 15.4-9.8 56.7-10.8 19.9-.5 36.5-.7 36.7-.6.3.1-1.3 1.4-3.4 2.8-2.9 1.9-7.2 2.7-17.2 3-12 .4-13.7.8-17.1 4-3.9 3.7-11.8 21.4-22 49.2-5.7 15.8-10.3 23.9-15 26.4-3.6 1.9-11.5 3.3-11.5 2.1zm118.6.2c0-.5 1.2-2.6 2.6-4.7 1.4-2 2.9-4.6 3.3-5.8.4-1.2 2.1-5.4 3.7-9.4l2.9-7.3-6.3 4.8c-10.7 8.2-22.2 9.9-27.9 4.3-6-6-3.6-19.1 5.7-31.8 10.5-14.3 29.9-19.6 29.9-8.2 0 5.3-7.9 14.2-18.1 20.5-8.5 5.2-11 9.8-8.3 14.9 1.7 3.1 4.7 3.1 11.7-.2 8.7-4.1 16.7-13.4 20.8-24.4 2-5.3 3.6-9.8 3.6-10s-1.4-.7-3.1-1c-2.9-.5-2.8-.7 1.2-2.4 2.4-1 5.5-3.8 6.8-6.1 7.5-13.2 17.5-19.1 33.7-20 10.8-.6 11.6-.4 15 3 2 2 3.6 4.3 3.6 5.2 0 2.1-7.7 9.7-9.9 9.7-1.4 0-1.4-.4-.1-1.7.9-.9 1.7-3.4 1.7-5.5 0-8.4-12.9-10.7-22.4-3.9-4 2.8-12.4 14.3-12.4 16.8 0 .5 6.3.6 13.9.2 14.8-.8 17.6.4 9.9 4.4-11.3 5.8-22.1 36.9-13.3 38.2 6.7 1 18.6-20.4 18.6-33.2 0-3.7.5-4 12.5-6.8 15.2-3.5 17.3-3.1 16.3 3.8-.4 2.8-1.2 6.2-1.8 7.6-.6 1.4 1.9-.5 5.5-4.4 7.3-7.8 13.1-10.8 18.2-9.5 6.8 1.7 6.1 5.4-5.3 30.8-3.2 7.1-5 13.3-5 17.1 0 6.8-1.5 7.4-6.5 2.3-4.8-4.8-4-11.3 3.5-28 3.2-7 5.8-13.4 5.8-14.3 0-6.4-14.1 9.9-23 26.6-6.4 11.9-7.3 13-11.5 13.4-2.5.2-4.5 0-4.5-.6s3.1-9.1 7-18.9c8.2-21.2 8.6-23.9 3.1-22.6-5.4 1.3-5.9 1.7-5.9 5.1 0 3.9-7.2 19.1-12 25.5-7.5 9.9-19.9 14.3-26.7 9.6-7.1-5-1.9-25.7 9.1-36.4l5.5-5.4-8.1.5-8.1.5-5.8 16.3c-8.1 22.5-14.5 35.9-18.3 38.4-3.7 2.4-10.8 4.4-10.8 3zm.2-46.3c5.2-5.5 7.4-11.5 4.5-12.6-4-1.5-12 8.5-15.2 18.9l-1 3.3 4-2.9c2.2-1.4 5.7-4.5 7.7-6.7zM113 219.3c-2.9-2.3-3.7-4.1-3.7-8.5v-5.6l-4.9 3.7c-11.1 8.4-20.9 10-26.7 4.2-3.2-3.2-3.5-4.3-2.7-10.7 2.2-16.8 15.2-32.2 29.6-35.2 3.4-.7 5.1-.3 7.3 1.9 2.4 2.4 2.6 3.5 1.4 7-1.8 5.1-12.8 15.6-20.6 19.6-5.3 2.7-5.8 3.4-5.8 8.4 0 3 .6 5.8 1.3 6.2 3.3 2.1 11-1.5 17.6-8.2 5.8-5.8 8.8-10.9 16.8-28.6 9.2-20.3 10-21.6 14.4-22.7 2.6-.7 5.2-1 5.8-.8.7.2-3.4 10.9-9 23.7-12.1 27.5-15.1 36.1-15.1 43.2 0 6.1-.6 6.4-5.7 2.4zm-14.7-32.6c6.5-6.1 9.2-11.6 6.9-13.9-1-1-2.2-1-3.9 0-5.4 3.4-15.8 23.2-10.7 20.3 1.1-.5 4.6-3.4 7.7-6.4zm261.4 32.5c-3.2-2.5-3.7-3.8-3.3-8.4.3-3 0-5.4-.6-5.4s-1.1.6-1.1 1.4c0 2.7-11.5 9.8-16 9.8-4.9 0-9.1-3.6-9.1-7.7 0-2.4-.2-2.4-3.1.3-8.7 8-19.8 9.7-25.5 3.9l-3.4-3.4-5.1 3.4c-5.9 4-13.2 4.5-16.6 1.1s-2-9 6.4-27.7c7.2-15.9 7.2-15.9 13-17.1 3.2-.7 6-1.1 6.2-.9.3.2-3 8.1-7.3 17.7-8.1 18-9.4 23.3-5.6 23.3 3.3 0 10.4-5.8 10.4-8.5 0-4.2 5.5-15.6 10.5-21.6 5.7-7 14.8-11.7 22.4-11.7 9.2 0 11.9 5.8 5.2 11.1-4.5 3.5-6.7 3.7-5.4.4 3.1-7.6-1.6-9.7-7.9-3.6-11.9 11.3-17.7 37.5-7.7 34.6 6.8-2 13.3-8 17.7-16.3 9.5-17.9 19.6-25.2 35-25.4 5.1-.1 9.7.3 10.3.9.6.6-.6 4.6-2.6 9.1-6 13.5-11 30-11.3 37-.1 3.6-.6 6.6-1.1 6.6-.2.1-2.3-1.3-4.4-2.9zm-8.7-14.4c4.6-4.7 18.5-31.1 17.1-32.4-1.6-1.6-8.7 1.6-12.6 5.8-5.5 5.8-11.4 16.8-13.1 24.2-2 9 1.3 9.9 8.6 2.4zm-50.3-44.9c-2.4-.9-2.2-6.7.3-8.7 3.2-2.6 7-1.2 7 2.6.1 3.4-4.4 7.2-7.3 6.1z"/></svg>