<?xml version="1.0" encoding="utf-8"?>
<!-- Generator: Adobe Illustrator 18.1.0, SVG Export Plug-In . SVG Version: 6.00 Build 0)  -->
<!DOCTYPE svg PUBLIC "-//W3C//DTD SVG 1.1//EN" "http://www.w3.org/Graphics/SVG/1.1/DTD/svg11.dtd">
<svg version="1.1" id="Layer_1" xmlns="http://www.w3.org/2000/svg" xmlns:xlink="http://www.w3.org/1999/xlink" x="0px" y="0px"
	 viewBox="153.4 0 56.7 56.7" enable-background="new 153.4 0 56.7 56.7" xml:space="preserve">
<g>
	<g>
		<path d="M209.1,44.7l-15.9-17.3l16-16c0.3-0.3,0.9-0.1,0.9,0.4v32.5C210,44.8,209.4,45.1,209.1,44.7z M184.7,35.9
			c-0.9,0.9-2.2,1.4-3.5,1.4h0c-1.3,0-2.6-0.5-3.5-1.5l-4.7-4.7l-16.2,16.5c-0.3,0.3-0.1,0.9,0.4,0.9h49.2c0.5,0,0.7-0.5,0.4-0.9
			L190.5,30L184.7,35.9z M181.2,33.6L181.2,33.6c0.4,0,0.7-0.1,0.9-0.4l24.1-24.2c0.3-0.3,0.1-0.9-0.4-0.9h-49.4
			c-0.5,0-0.7,0.6-0.4,0.9l24.2,24.2C180.6,33.5,180.9,33.6,181.2,33.6z M153.4,12.8v31.8c0,0.5,0.6,0.7,0.9,0.4l16.1-16.4
			l-16.1-16.1C153.9,12.1,153.4,12.3,153.4,12.8z"/>
	</g>
</g>
</svg>
