<?xml version="1.0" encoding="utf-8"?>
<!-- Generator: Adobe Illustrator 18.1.0, SVG Export Plug-In . SVG Version: 6.00 Build 0)  -->
<!DOCTYPE svg PUBLIC "-//W3C//DTD SVG 1.1//EN" "http://www.w3.org/Graphics/SVG/1.1/DTD/svg11.dtd">
<svg version="1.1" id="Foreground" xmlns="http://www.w3.org/2000/svg" xmlns:xlink="http://www.w3.org/1999/xlink" x="0px" y="0px"
	 viewBox="0 0 283.5 92.6" enable-background="new 0 0 283.5 92.6" xml:space="preserve">
<path fill-rule="evenodd" clip-rule="evenodd" d="M0,38.1C0,59,15.1,76.3,37.1,76.3c21.9,0,37-17.3,37-38.1C74.2,16,59.3,0,37.1,0
	C14.9,0,0,16,0,38.1z M14.3,38.1c0-13.9,8.4-27.3,22.9-27.3c14.3,0,22.7,13.4,22.7,27.3c0,13-7,27.3-22.7,27.3
	C21.3,65.4,14.3,51.1,14.3,38.1z"/>
<path fill-rule="evenodd" clip-rule="evenodd" d="M94.1,92.6v-5.1H81c5.3-5.2,12.2-11.5,12.2-18.3c0-6.3-4-9.4-10.1-9.4
	c-3.3,0-6.7,0.8-9.6,2.3l0.5,5.4c2.1-1.4,4.7-2.6,7.4-2.6c2.6,0,5.3,1.4,5.3,4.3c0,5.9-11,15.1-14,18v5.4H94.1z"/>
<g>
	<path d="M124.6,76.4c0.1-1.6,0.2-4.1,0.2-6.2v-29h4.3v15.1h0.1c1.5-2.7,4.3-4.4,8.2-4.4c5.9,0,10.2,5,10.1,12.2
		c0,8.6-5.4,12.8-10.7,12.8c-3.5,0-6.2-1.3-8-4.5h-0.1l-0.2,4H124.6z M129.1,66.8c0,0.5,0.1,1.1,0.2,1.6c0.8,3,3.4,5.1,6.5,5.1
		c4.6,0,7.3-3.7,7.3-9.2c0-4.8-2.5-8.9-7.1-8.9c-3,0-5.7,2-6.6,5.3c-0.1,0.5-0.2,1.1-0.2,1.8V66.8z"/>
	<path d="M171,69.9c0,2.5,0,4.7,0.2,6.5h-3.9l-0.2-3.9H167c-1.1,1.9-3.7,4.5-7.9,4.5c-3.8,0-8.3-2.1-8.3-10.5v-14h4.4v13.3
		c0,4.6,1.4,7.6,5.3,7.6c2.9,0,5-2,5.7-4c0.2-0.6,0.4-1.4,0.4-2.2V52.5h4.4V69.9z"/>
	<path d="M175.7,72c1.3,0.8,3.6,1.7,5.7,1.7c3.2,0,4.7-1.6,4.7-3.6c0-2.1-1.2-3.2-4.5-4.4c-4.3-1.5-6.3-3.9-6.3-6.8
		c0-3.9,3.1-7,8.3-7c2.4,0,4.6,0.7,5.9,1.5l-1.1,3.2c-0.9-0.6-2.7-1.4-4.9-1.4c-2.6,0-4,1.5-4,3.3c0,2,1.4,2.9,4.6,4.1
		c4.2,1.6,6.3,3.7,6.3,7.2c0,4.2-3.3,7.2-9,7.2c-2.6,0-5.1-0.6-6.7-1.6L175.7,72z"/>
	<path d="M198.7,45.7c0,1.5-1,2.7-2.8,2.7c-1.5,0-2.6-1.2-2.6-2.7c0-1.5,1.1-2.7,2.7-2.7C197.7,43,198.7,44.2,198.7,45.7z
		 M193.9,76.4v-24h4.4v24H193.9z"/>
	<path d="M203.5,59c0-2.5,0-4.5-0.2-6.5h3.9l0.2,4h0.1c1.2-2.3,4-4.5,7.9-4.5c3.3,0,8.5,2,8.5,10.2v14.3h-4.4V62.6
		c0-3.9-1.4-7.1-5.5-7.1c-2.9,0-5.1,2-5.8,4.5c-0.2,0.5-0.3,1.3-0.3,2v14.4h-4.4V59z"/>
	<path d="M231.4,65.2c0.1,5.9,3.9,8.3,8.2,8.3c3.1,0,5-0.5,6.6-1.2l0.7,3.1c-1.5,0.7-4.2,1.5-8,1.5c-7.4,0-11.8-4.9-11.8-12.1
		c0-7.2,4.3-12.9,11.2-12.9c7.8,0,9.9,6.9,9.9,11.3c0,0.9-0.1,1.6-0.1,2H231.4z M244.2,62.1c0.1-2.8-1.1-7.1-6-7.1
		c-4.4,0-6.3,4.1-6.7,7.1H244.2z"/>
	<path d="M251.2,72c1.3,0.8,3.6,1.7,5.7,1.7c3.2,0,4.7-1.6,4.7-3.6c0-2.1-1.2-3.2-4.5-4.4c-4.3-1.5-6.3-3.9-6.3-6.8
		c0-3.9,3.1-7,8.3-7c2.4,0,4.6,0.7,5.9,1.5l-1.1,3.2c-0.9-0.6-2.7-1.4-4.9-1.4c-2.6,0-4,1.5-4,3.3c0,2,1.4,2.9,4.6,4.1
		c4.2,1.6,6.3,3.7,6.3,7.2c0,4.2-3.3,7.2-9,7.2c-2.6,0-5.1-0.6-6.7-1.6L251.2,72z"/>
	<path d="M268.8,72c1.3,0.8,3.6,1.7,5.7,1.7c3.2,0,4.7-1.6,4.7-3.6c0-2.1-1.2-3.2-4.5-4.4c-4.3-1.5-6.3-3.9-6.3-6.8
		c0-3.9,3.1-7,8.3-7c2.4,0,4.6,0.7,5.9,1.5l-1.1,3.2c-0.9-0.6-2.7-1.4-4.9-1.4c-2.6,0-4,1.5-4,3.3c0,2,1.4,2.9,4.6,4.1
		c4.2,1.6,6.3,3.7,6.3,7.2c0,4.2-3.3,7.2-9,7.2c-2.6,0-5-0.6-6.7-1.6L268.8,72z"/>
</g>
</svg>
