<?xml version="1.0" encoding="utf-8"?>
<!-- Generator: Adobe Illustrator 18.1.0, SVG Export Plug-In . SVG Version: 6.00 Build 0)  -->
<!DOCTYPE svg PUBLIC "-//W3C//DTD SVG 1.1//EN" "http://www.w3.org/Graphics/SVG/1.1/DTD/svg11.dtd">
<svg version="1.1" id="Layer_1" xmlns="http://www.w3.org/2000/svg" xmlns:xlink="http://www.w3.org/1999/xlink" x="0px" y="0px"
	 viewBox="2 143.6 396.1 112.8" enable-background="new 2 143.6 396.1 112.8" xml:space="preserve">
<g>
	<path id="path3249_1_" d="M42.1,256.1c-22-0.3-40.1-1-40.1-1.7c0-2,154.5-3.4,278.1-2.4c64.4,0.5,117.3,1.2,117.7,1.6
		c0.4,0.4,0.3,1.1-0.1,1.5C396.7,256,103.4,256.9,42.1,256.1L42.1,256.1z M36.8,231.1c0-0.6,1.2-2.4,2.7-3.9
		c1.5-1.6,7.5-15.1,13.3-30.1c12.2-31,15.4-37.1,22.7-43.3l5.2-4.4l-13.2,0.8c-15.1,0.9-24.1,3.6-29.6,8.9c-4.2,4-6.8,11.2-5.7,15.7
		c1,3.9-1.8,3.6-6.1-0.8c-5.1-5.1-3.8-12.1,3.5-19c9.2-8.6,15.4-9.8,56.7-10.8c19.9-0.5,36.5-0.7,36.7-0.6c0.3,0.1-1.3,1.4-3.4,2.8
		c-2.9,1.9-7.2,2.7-17.2,3c-12,0.4-13.7,0.8-17.1,4c-3.9,3.7-11.8,21.4-22,49.2c-5.7,15.8-10.3,23.9-15,26.4
		C44.7,230.9,36.8,232.3,36.8,231.1L36.8,231.1z M155.4,231.3c0-0.5,1.2-2.6,2.6-4.7c1.4-2,2.9-4.6,3.3-5.8c0.4-1.2,2.1-5.4,3.7-9.4
		l2.9-7.3l-6.3,4.8c-10.7,8.2-22.2,9.9-27.9,4.3c-6-6-3.6-19.1,5.7-31.8c10.5-14.3,29.9-19.6,29.9-8.2c0,5.3-7.9,14.2-18.1,20.5
		c-8.5,5.2-11,9.8-8.3,14.9c1.7,3.1,4.7,3.1,11.7-0.2c8.7-4.1,16.7-13.4,20.8-24.4c2-5.3,3.6-9.8,3.6-10s-1.4-0.7-3.1-1
		c-2.9-0.5-2.8-0.7,1.2-2.4c2.4-1,5.5-3.8,6.8-6.1c7.5-13.2,17.5-19.1,33.7-20c10.8-0.6,11.6-0.4,15,3c2,2,3.6,4.3,3.6,5.2
		c0,2.1-7.7,9.7-9.9,9.7c-1.4,0-1.4-0.4-0.1-1.7c0.9-0.9,1.7-3.4,1.7-5.5c0-8.4-12.9-10.7-22.4-3.9c-4,2.8-12.4,14.3-12.4,16.8
		c0,0.5,6.3,0.6,13.9,0.2c14.8-0.8,17.6,0.4,9.9,4.4c-11.3,5.8-22.1,36.9-13.3,38.2c6.7,1,18.6-20.4,18.6-33.2c0-3.7,0.5-4,12.5-6.8
		c15.2-3.5,17.3-3.1,16.3,3.8c-0.4,2.8-1.2,6.2-1.8,7.6c-0.6,1.4,1.9-0.5,5.5-4.4c7.3-7.8,13.1-10.8,18.2-9.5
		c6.8,1.7,6.1,5.4-5.3,30.8c-3.2,7.1-5,13.3-5,17.1c0,6.8-1.5,7.4-6.5,2.3c-4.8-4.8-4-11.3,3.5-28c3.2-7,5.8-13.4,5.8-14.3
		c0-6.4-14.1,9.9-23,26.6c-6.4,11.9-7.3,13-11.5,13.4c-2.5,0.2-4.5,0-4.5-0.6s3.1-9.1,7-18.9c8.2-21.2,8.6-23.9,3.1-22.6
		c-5.4,1.3-5.9,1.7-5.9,5.1c0,3.9-7.2,19.1-12,25.5c-7.5,9.9-19.9,14.3-26.7,9.6c-7.1-5-1.9-25.7,9.1-36.4l5.5-5.4l-8.1,0.5
		l-8.1,0.5l-5.8,16.3c-8.1,22.5-14.5,35.9-18.3,38.4C162.5,230.7,155.4,232.7,155.4,231.3L155.4,231.3z M155.6,185
		c5.2-5.5,7.4-11.5,4.5-12.6c-4-1.5-12,8.5-15.2,18.9l-1,3.3l4-2.9C150.1,190.3,153.6,187.2,155.6,185L155.6,185z M113,219.3
		c-2.9-2.3-3.7-4.1-3.7-8.5v-5.6l-4.9,3.7c-11.1,8.4-20.9,10-26.7,4.2c-3.2-3.2-3.5-4.3-2.7-10.7c2.2-16.8,15.2-32.2,29.6-35.2
		c3.4-0.7,5.1-0.3,7.3,1.9c2.4,2.4,2.6,3.5,1.4,7c-1.8,5.1-12.8,15.6-20.6,19.6c-5.3,2.7-5.8,3.4-5.8,8.4c0,3,0.6,5.8,1.3,6.2
		c3.3,2.1,11-1.5,17.6-8.2c5.8-5.8,8.8-10.9,16.8-28.6c9.2-20.3,10-21.6,14.4-22.7c2.6-0.7,5.2-1,5.8-0.8c0.7,0.2-3.4,10.9-9,23.7
		c-12.1,27.5-15.1,36.1-15.1,43.2C118.7,223,118.1,223.3,113,219.3L113,219.3z M98.3,186.7c6.5-6.1,9.2-11.6,6.9-13.9
		c-1-1-2.2-1-3.9,0c-5.4,3.4-15.8,23.2-10.7,20.3C91.7,192.6,95.2,189.7,98.3,186.7L98.3,186.7z M359.7,219.2
		c-3.2-2.5-3.7-3.8-3.3-8.4c0.3-3,0-5.4-0.6-5.4s-1.1,0.6-1.1,1.4c0,2.7-11.5,9.8-16,9.8c-4.9,0-9.1-3.6-9.1-7.7
		c0-2.4-0.2-2.4-3.1,0.3c-8.7,8-19.8,9.7-25.5,3.9l-3.4-3.4l-5.1,3.4c-5.9,4-13.2,4.5-16.6,1.1s-2-9,6.4-27.7
		c7.2-15.9,7.2-15.9,13-17.1c3.2-0.7,6-1.1,6.2-0.9c0.3,0.2-3,8.1-7.3,17.7c-8.1,18-9.4,23.3-5.6,23.3c3.3,0,10.4-5.8,10.4-8.5
		c0-4.2,5.5-15.6,10.5-21.6c5.7-7,14.8-11.7,22.4-11.7c9.2,0,11.9,5.8,5.2,11.1c-4.5,3.5-6.7,3.7-5.4,0.4c3.1-7.6-1.6-9.7-7.9-3.6
		c-11.9,11.3-17.7,37.5-7.7,34.6c6.8-2,13.3-8,17.7-16.3c9.5-17.9,19.6-25.2,35-25.4c5.1-0.1,9.7,0.3,10.3,0.9
		c0.6,0.6-0.6,4.6-2.6,9.1c-6,13.5-11,30-11.3,37c-0.1,3.6-0.6,6.6-1.1,6.6C363.9,222.2,361.8,220.8,359.7,219.2L359.7,219.2z
		 M351,204.8c4.6-4.7,18.5-31.1,17.1-32.4c-1.6-1.6-8.7,1.6-12.6,5.8c-5.5,5.8-11.4,16.8-13.1,24.2
		C340.4,211.4,343.7,212.3,351,204.8L351,204.8z M300.7,159.9c-2.4-0.9-2.2-6.7,0.3-8.7c3.2-2.6,7-1.2,7,2.6
		C308.1,157.2,303.6,161,300.7,159.9L300.7,159.9z"/>
</g>
</svg>
